<svg width="17" height="16" viewBox="0 0 17 16" fill="none" xmlns="http://www.w3.org/2000/svg">
<path fill-rule="evenodd" clip-rule="evenodd" d="M12.1667 1.33334C12.5086 1.33334 12.7904 1.5907 12.8289 1.92226L12.8334 2.00001V4.66668C12.8334 5.00857 12.576 5.29035 12.2444 5.32886L12.1667 5.33334H10.1667V6.00001H12.1667C12.5749 6.00001 12.8808 6.36106 12.8277 6.75433L12.8134 6.82837L12.1468 9.49503C12.0788 9.76708 11.849 9.9647 11.5756 9.99574L11.5 10H10.1667V14C10.1667 14.3419 9.90933 14.6237 9.57777 14.6622L9.50002 14.6667H6.83335C6.49146 14.6667 6.20968 14.4093 6.17117 14.0778L6.16669 14V10H4.83335C4.49146 10 4.20968 9.74265 4.17117 9.41109L4.16669 9.33334V6.66668C4.16669 6.32479 4.42405 6.04301 4.75561 6.0045L4.83335 6.00001H6.16669V5.33334C6.16669 3.17441 7.87707 1.41496 10.0167 1.3361L10.1667 1.33334H12.1667Z" fill="#0070D2"/>
</svg>
