<svg width="17" height="16" viewBox="0 0 17 16" fill="none" xmlns="http://www.w3.org/2000/svg">
<path fill-rule="evenodd" clip-rule="evenodd" d="M12.8333 2H4.83334C3.72877 2 2.83334 2.89543 2.83334 4V12C2.83334 13.1046 3.72877 14 4.83334 14H12.8333C13.9379 14 14.8333 13.1046 14.8333 12V4C14.8333 2.89543 13.9379 2 12.8333 2ZM6.16668 6.66667C6.50857 6.66667 6.79035 6.92403 6.82886 7.25559L6.83334 7.33333V10.6667C6.83334 11.0349 6.53487 11.3333 6.16668 11.3333C5.82479 11.3333 5.54301 11.076 5.5045 10.7444L5.50001 10.6667V7.33333C5.50001 6.96514 5.79849 6.66667 6.16668 6.66667ZM6.82886 5.25559C6.79035 4.92403 6.50857 4.66667 6.16668 4.66667C5.79849 4.66667 5.50001 4.96514 5.50001 5.33333L5.5045 5.41775C5.54301 5.74931 5.82479 6.00667 6.16668 6.00667C6.53487 6.00667 6.83334 5.70819 6.83334 5.34L6.82886 5.25559ZM9.50001 8.66666L9.50001 8.66667L9.50001 10.6667C9.50001 11.0349 9.20153 11.3333 8.83334 11.3333C8.49145 11.3333 8.20967 11.076 8.17116 10.7444L8.16668 10.6667V8.66667V7.33333C8.16668 6.96514 8.46515 6.66667 8.83334 6.66667C9.01726 6.66667 9.18378 6.74114 9.3044 6.86158C9.56549 6.73663 9.85791 6.66667 10.1667 6.66667C11.2318 6.66667 12.1025 7.49928 12.1633 8.54915L12.1667 8.66667V10.6667C12.1667 11.0349 11.8682 11.3333 11.5 11.3333C11.1581 11.3333 10.8763 11.076 10.8378 10.7444L10.8333 10.6667V8.66667C10.8333 8.29848 10.5349 8 10.1667 8C9.82479 8 9.54301 8.25736 9.5045 8.58892L9.50001 8.66666Z" fill="#0070D2"/>
</svg>
