<svg width="15" height="14" viewBox="0 0 15 14" fill="none" xmlns="http://www.w3.org/2000/svg">
<path fill-rule="evenodd" clip-rule="evenodd" d="M0.146156 12.6923L1.5 7.67691H7.22308C7.37692 7.67691 7.53077 7.52306 7.53077 7.36922V6.75383C7.53077 6.59999 7.37692 6.44614 7.22308 6.44614H1.5L0.176925 1.52306C0.146156 1.46153 0.115387 1.36922 0.115387 1.27691C0.115387 1.06153 0.330772 0.846141 0.576925 0.87691C0.638464 0.87691 0.669233 0.907679 0.730772 0.907679L14.5769 6.59999C14.7615 6.66153 14.8846 6.84614 14.8846 7.03076C14.8846 7.21537 14.7615 7.36922 14.6077 7.43076L0.730772 13.2769C0.669233 13.3077 0.607695 13.3077 0.546156 13.3077C0.300002 13.2769 0.115387 13.0923 0.115387 12.8461C0.115387 12.7846 0.115387 12.7538 0.146156 12.6923Z" fill="#006DCC"/>
</svg>
