<svg width="17" height="16" viewBox="0 0 17 16" fill="none" xmlns="http://www.w3.org/2000/svg">
<path fill-rule="evenodd" clip-rule="evenodd" d="M9.87202 2.27387C8.66702 2.78464 7.87522 3.90863 7.83471 5.19354L7.83333 5.31468L7.67104 5.29919C6.07662 5.12071 4.67239 4.2913 3.70873 2.94526C3.42474 2.5486 2.82485 2.58128 2.58564 3.00645L2.52039 3.13067L2.48798 3.1964C2.00898 4.18662 1.6942 5.3906 1.81033 6.66555L1.82997 6.84757C2.01852 8.3562 2.82944 9.65719 4.34909 10.633L4.46466 10.7047L4.4106 10.7334C3.53381 11.1752 2.73182 11.3678 1.85925 11.3339C1.15503 11.3064 0.895468 12.2481 1.51428 12.5854C3.91278 13.8927 6.48805 14.2962 8.70851 13.6516C11.4156 12.8652 13.4768 10.8367 14.2651 8.03031L14.35 7.70028C14.5083 7.03799 14.5978 6.36277 14.6174 5.68398L14.62 5.46001L15.2091 4.29908L15.339 4.03352C15.5461 3.60135 15.6922 3.25215 15.7785 2.96173L15.8093 2.85058C15.9621 2.29664 15.3893 1.82184 14.8733 2.07469C14.6913 2.16386 14.5005 2.24132 14.2873 2.31424L14.0493 2.3913L13.8687 2.44475L13.354 2.58735C12.4631 1.84218 11.2579 1.75148 10.0129 2.21768L9.87202 2.27387Z" fill="#0070D2"/>
</svg>
